PathFileType	4	(X/Y/Z)	./resultDataOpenSim/trcMotMarkerGrf/sub06/qtm-04-06.trc
DataRate	CameraRate	NumFrames	NumMarkers	Units	OrigDataRate	OrigDataStartFrame	OrigNumFrames
250.000000	250.000000	12	24	m	250.000000	70	555
Frame#	Time	L.Toe.Tip			R.Toe.Tip			L.Ankle.Lat			R.Ankle.Lat			L.Ankle.Med			R.Ankle.Med			L.Heel			R.Heel			L.Knee.Lat			R.Knee.Lat			L.Knee.Med			R.Knee.Med			L.Thigh.Upper			R.Thigh.Upper			L.ASIS			R.ASIS			V.Sacral			L.Acromium			R.Acromium			C7			L.Elbow			R.Elbow			L.Wrist.Lat			R.Wrist.Lat
		X1	Y1	Z1	X2	Y2	Z2	X3	Y3	Z3	X4	Y4	Z4	X5	Y5	Z5	X6	Y6	Z6	X7	Y7	Z7	X8	Y8	Z8	X9	Y9	Z9	X10	Y10	Z10	X11	Y11	Z11	X12	Y12	Z12	X13	Y13	Z13	X14	Y14	Z14	X15	Y15	Z15	X16	Y16	Z16	X17	Y17	Z17	X18	Y18	Z18	X19	Y19	Z19	X20	Y20	Z20	X21	Y21	Z21	X22	Y22	Z22	X23	Y23	Z23	X24	Y24	Z24

70	0.276	-1.2698223	0.079518477	-0.098659864	-0.80818517	0.035492505	0.076806686	-1.2824289	0.20899686	-0.12507614	-0.94284648	0.060019913	0.10039046	-1.2647979	0.21414178	-0.0441754	-0.92372799	0.081079155	0.014165759	-1.3349108	0.26058687	-0.076811418	-0.99801152	0.038549824	0.038122291	-0.95692847	0.39591697	-0.15076612	-0.8668144	0.44061436	0.13772787	-0.95160864	0.3802857	-0.029258741	-0.90487029	0.43135982	0.013567709	-1.0262833	0.7850588	-0.13749282	-0.99614161	0.79426127	0.20375654	-0.94831715	0.83384239	-0.10336909	-0.91310959	0.84690716	0.14067036	-1.1128595	0.91584613	0.047720856	-1.0049373	1.3250354	-0.14865292	-0.99790619	1.3044709	0.21459594	-1.075671	1.3562743	0.034825471	-1.0243858	1.0022975	-0.20939691	-1.0948485	1.0032873	0.27125961	-0.83276844	0.84485186	-0.19826492	-0.98613502	0.7933481	0.31629281
71	0.28	-1.2533946	0.079241419	-0.098627369	-0.80828132	0.035512327	0.076874015	-1.2686374	0.20828457	-0.12466113	-0.94301002	0.060024877	0.10045324	-1.2507729	0.21377633	-0.043862244	-0.92380382	0.081187424	0.014268069	-1.3220032	0.25897146	-0.076582257	-0.99808619	0.038554392	0.0381756	-0.94521984	0.39872248	-0.15031973	-0.86625857	0.44050722	0.13784667	-0.93934214	0.38308729	-0.028701849	-0.9035902	0.43160043	0.013731524	-1.0200294	0.78718773	-0.13702241	-0.99029086	0.79552349	0.20472655	-0.94260415	0.83573095	-0.10285158	-0.90811603	0.84844491	0.14165824	-1.1075094	0.91731699	0.049400198	-1.0000106	1.3268319	-0.14843857	-0.99213001	1.306516	0.21467967	-1.0702377	1.3579879	0.035128978	-1.020671	1.0042495	-0.2084343	-1.0870906	1.0048729	0.27269521	-0.83029084	0.84534121	-0.19870198	-0.97623701	0.79593394	0.31679143
72	0.284	-1.2368068	0.078797601	-0.098545431	-0.80837792	0.035537222	0.076919912	-1.2547696	0.20735601	-0.12422823	-0.94309365	0.060043999	0.10051565	-1.2366375	0.2132005	-0.043550766	-0.92388835	0.081304994	0.014345393	-1.3090131	0.25705227	-0.076155742	-0.99817635	0.038528666	0.038249027	-0.93357094	0.40161458	-0.14981968	-0.86577949	0.44041779	0.13793585	-0.92721111	0.38598719	-0.028116385	-0.90246082	0.43183899	0.013832925	-1.0137834	0.78930858	-0.13670663	-0.98531372	0.7967754	0.20565293	-0.93681965	0.83763932	-0.10229065	-0.90294318	0.85001914	0.14263517	-1.1025579	0.91864614	0.051298393	-0.99506334	1.3286321	-0.14822005	-0.98633349	1.3085652	0.21474238	-1.064804	1.3596951	0.035437579	-1.0169603	1.0062245	-0.20745102	-1.0794135	1.0064744	0.27403163	-0.8278717	0.84586167	-0.199173	-0.96633611	0.79858582	0.31724518
73	0.288	-1.219876	0.078246057	-0.098593484	-0.80847984	0.035567632	0.076949515	-1.2407303	0.20625417	-0.12379807	-0.94314012	0.06006039	0.1005632	-1.2224194	0.21241889	-0.043222723	-0.92398717	0.081432558	0.014402332	-1.2959163	0.25476522	-0.075618181	-0.99827709	0.038496624	0.038330386	-0.921996	0.40458756	-0.14926017	-0.8653635	0.44034575	0.13799998	-0.91517547	0.38900954	-0.027481811	-0.90150063	0.43208624	0.013886434	-1.0075286	0.79142049	-0.13648698	-0.98162755	0.79796281	0.20641022	-0.93095532	0.83963238	-0.10169365	-0.897443	0.8516426	0.14362288	-1.097873	0.91989716	0.05277492	-0.99009836	1.3304239	-0.14799805	-0.98053177	1.3106184	0.21478453	-1.0593755	1.3613877	0.035749078	-1.0132376	1.0082139	-0.20643607	-1.071778	1.008091	0.27533835	-0.82551233	0.84640629	-0.19967871	-0.9564437	0.80129592	0.31766423
74	0.292	-1.202562	0.0776306	-0.098806642	-0.80858764	0.035599491	0.07697226	-1.226497	0.20500823	-0.12338882	-0.94329458	0.060007422	0.1005665	-1.2081146	0.21143803	-0.042868919	-0.92409945	0.081568122	0.014456858	-1.2827421	0.25215091	-0.075021535	-0.99838166	0.038491115	0.038404562	-0.91050867	0.40762905	-0.14864229	-0.86499696	0.44029082	0.13804364	-0.90328281	0.39214596	-0.026800274	-0.90058204	0.43236773	0.013922914	-1.0012567	0.7935371	-0.13632788	-0.97874109	0.79907869	0.20702319	-0.9249259	0.84174164	-0.10103879	-0.89169846	0.85330236	0.14462738	-1.0931425	0.92117017	0.053506291	-0.98511825	1.3321962	-0.14777088	-0.97474503	1.3126748	0.21481591	-1.0539561	1.3630628	0.036055448	-1.0095393	1.0102109	-0.20543829	-1.0642378	1.0097036	0.27652761	-0.82320255	0.8469691	-0.20022111	-0.94655743	0.80405604	0.31804966
75	0.296	-1.1849164	0.076978852	-0.099121531	-0.80870026	0.035628357	0.076997827	-1.2121053	0.20361267	-0.12299481	-0.94372384	0.05981674	0.10050534	-1.1937186	0.21026931	-0.042481605	-0.92421791	0.08170895	0.014528594	-1.2695233	0.24929297	-0.074445348	-0.99849114	0.038519611	0.038471265	-0.8991121	0.41071827	-0.14797359	-0.86466622	0.44025273	0.13807142	-0.8916639	0.3953613	-0.026103685	-0.89959158	0.4326912	0.013970285	-0.99496242	0.79566022	-0.13618888	-0.9759195	0.80013494	0.20756775	-0.9187529	0.84392702	-0.10033997	-0.88621172	0.85494204	0.14559328	-1.0882173	0.92250001	0.053708711	-0.98012433	1.3339452	-0.1475392	-0.96898426	1.314724	0.21484769	-1.0485489	1.3647128	0.036348844	-1.0059253	1.0122109	-0.2045316	-1.0568208	1.0113033	0.27752274	-0.82093304	0.84754269	-0.20080116	-0.93666906	0.80686035	0.31839688
76	0.3	-1.1669881	0.076316304	-0.099467334	-0.80881597	0.035655186	0.07703141	-1.1975943	0.20205334	-0.12259764	-0.94437134	0.059537069	0.10041267	-1.1791898	0.20893952	-0.04207786	-0.9243341	0.081852622	0.014623508	-1.2562461	0.24621048	-0.073943172	-0.99861124	0.038563958	0.03854524	-0.88779834	0.41383677	-0.14726174	-0.86435759	0.44023118	0.13808797	-0.88041695	0.39862658	-0.025419507	-0.89864952	0.4330161	0.014028856	-0.98864101	0.79778179	-0.13603593	-0.97273539	0.80114288	0.20809356	-0.91259209	0.84611879	-0.099645263	-0.88154294	0.85650784	0.14643497	-1.0831298	0.92390023	0.05369558	-0.97511683	1.3356671	-0.14730734	-0.96325011	1.3167523	0.21488464	-1.0431568	1.366324	0.036628787	-1.0024144	1.0142077	-0.20374578	-1.0495038	1.0128972	0.27829107	-0.81870117	0.84812132	-0.20141479	-0.9267705	0.8097012	0.31870445
77	0.304	-1.1487887	0.075669718	-0.099803436	-0.80893161	0.035685139	0.077071972	-1.182977	0.20032927	-0.12218429	-0.94494701	0.059326593	0.10036201	-1.1644179	0.20749438	-0.041711376	-0.9244441	0.081997835	0.014735007	-1.2428672	0.24285405	-0.07349399	-0.99874431	0.038607658	0.038643601	-0.87655357	0.41697298	-0.14650347	-0.86405746	0.44022579	0.13809792	-0.86945969	0.40195456	-0.02471682	-0.89804849	0.43329547	0.01407891	-0.98228469	0.79989681	-0.1359041	-0.96910175	0.80210718	0.20861486	-0.90654692	0.84827829	-0.09897597	-0.87752455	0.85801648	0.1471591	-1.0778814	0.92545299	0.053548094	-0.97009526	1.3373545	-0.14707372	-0.95753876	1.3187542	0.21492427	-1.0377805	1.3678894	0.036899466	-0.99897698	1.0161907	-0.2030547	-1.042262	1.0144919	0.27884096	-0.81649956	0.84870467	-0.20205207	-0.91686992	0.81256825	0.31897419
78	0.308	-1.130313	0.075054385	-0.10011567	-0.8090451	0.035719823	0.07711674	-1.1682297	0.19844026	-0.12176199	-0.9452341	0.059299233	0.10040357	-1.1493521	0.20597808	-0.04141577	-0.92454942	0.082145609	0.014852577	-1.2293502	0.23918321	-0.073069871	-0.99888411	0.038654197	0.03876944	-0.8653699	0.42012055	-0.14568437	-0.86375216	0.4402362	0.13810587	-0.85859	0.4053844	-0.023929325	-0.89786197	0.43354703	0.014134263	-0.97586787	0.80200008	-0.1359014	-0.96508356	0.80302844	0.20912884	-0.90059899	0.85040398	-0.098310291	-0.87330142	0.85953375	0.14790104	-1.0724654	0.92720784	0.053230491	-0.96505712	1.3390018	-0.14683124	-0.95183528	1.3207353	0.21495865	-1.0324167	1.3694099	0.037161422	-0.99557523	1.0181444	-0.20241481	-1.0350846	1.0160777	0.27931129	-0.81430991	0.8492919	-0.20270349	-0.90699553	0.81545381	0.31920866
79	0.312	-1.111601	0.074445752	-0.10039106	-0.80916032	0.035752503	0.077167595	-1.1532892	0.19636882	-0.12135591	-0.9452235	0.059456778	0.10053868	-1.1341443	0.20437867	-0.041144771	-0.92465125	0.082299394	0.014966518	-1.2157044	0.2352165	-0.072626675	-0.99899953	0.03872637	0.038883341	-0.85425874	0.42327498	-0.14480033	-0.86342734	0.44026255	0.1381163	-0.84770832	0.40893054	-0.023031714	-0.89777828	0.43380279	0.014231644	-0.96934952	0.80407875	-0.1360815	-0.9607616	0.80390611	0.20963018	-0.89469081	0.85250802	-0.097617911	-0.86838804	0.86107468	0.14878519	-1.0670315	0.92901867	0.052787915	-0.96000117	1.3406051	-0.14657952	-0.94609854	1.3227018	0.21497978	-1.0270618	1.3708832	0.037409472	-0.99218745	1.0200529	-0.20179467	-1.0279923	1.0176309	0.27991298	-0.81212137	0.84987315	-0.2033674	-0.89716232	0.81835276	0.31941254
80	0.316	-1.0927452	0.073786321	-0.10060732	-0.8092887	0.035769258	0.077230917	-1.1380688	0.19408828	-0.12098358	-0.94503006	0.059719878	0.10072931	-1.1191548	0.2025837	-0.040751238	-0.92474995	0.082459396	0.015073232	-1.2019815	0.23100899	-0.072022186	-0.99902508	0.038850197	0.038894389	-0.84324429	0.42643028	-0.14386453	-0.86306665	0.44030581	0.13813381	-0.83686872	0.41257181	-0.022042631	-0.89757337	0.4340191	0.014328535	-0.96272152	0.80612466	-0.13632433	-0.95618794	0.80473985	0.2101161	-0.88877618	0.85460541	-0.096898511	-0.86319539	0.86256096	0.1497817	-1.0618372	0.9306468	0.052350145	-0.95493216	1.3421588	-0.14632355	-0.94028488	1.3246498	0.21498879	-1.0217146	1.3723029	0.037639143	-0.98880664	1.0219051	-0.20118585	-1.0210625	1.0191338	0.2806949	-0.80994357	0.85043202	-0.20405003	-0.88735036	0.82126131	0.31958987
81	0.32	-1.0738133	0.073046115	-0.10074746	-0.80944027	0.03575927	0.07731016	-1.1225285	0.19159889	-0.12063824	-0.94482366	0.059972493	0.10091715	-1.1046265	0.20047811	-0.040085692	-0.92486173	0.082612713	0.01518242	-1.188194	0.22660204	-0.071117753	-0.99891386	0.039029127	0.038740312	-0.83234801	0.4295776	-0.14288788	-0.86265135	0.44036713	0.13816373	-0.82615859	0.41627287	-0.020979898	-0.89742659	0.43415796	0.014314336	-0.95603643	0.80814346	-0.13644986	-0.95139113	0.80552966	0.2105862	-0.88281446	0.85670646	-0.096175077	-0.85836029	0.8639141	0.15073914	-1.0570055	0.9319985	0.05200972	-0.94985616	1.3436549	-0.14606422	-0.93441539	1.326564	0.21499901	-1.0163745	1.373667	0.037851365	-0.98543134	1.0236973	-0.20059976	-1.014358	1.0205908	0.28152323	-0.80778981	0.85095587	-0.20475651	-0.87753193	0.82417613	0.31973993
